:FULLY-SPECIFIED
:FORCE-ALL-JOINTS-BE-3DOF
:DEGREES
469
root 10.879 17.3965 29.4898 3.96302 4.2599 2.83725
lfemur -8.07355 2.51365 -28.456
ltibia 22.8202 0 0
lfoot -17.4931 3.76325 0
ltoes 3.6228 0 0
rfemur -32.9003 1.0356 16.0435
rtibia 49.7187 0 0
rfoot -19.692 -10.2674 0
rtoes -15.5613 0 0
lowerback -5.03122 -3.99369 -3.98758
upperback 0.334177 -5.14983 1.89943
thorax 3.69149 -2.65966 3.7568
lowerneck -22.6679 -2.84124 -10.1326
upperneck 24.3775 -3.29681 10.08
head 12.1411 -1.10636 4.99331
lclavicle -9.24349e-15 -2.38542e-15 0
lhumerus -12.1175 -19.6735 84.8937
lradius 27.2561 0 0
lwrist 5.09789 0 0
lhand -14.7232 -24.6897 0
lfingers 7.12502 0 0
lthumb 11.4317 4.97865 0
rclavicle -9.24349e-15 -2.38542e-15 0
rhumerus -45.3748 10.5343 -86.5254
rradius 38.7962 0 0
rwrist -19.863 0 0
rhand -25.1514 -40.542 0
rfingers 7.12502 0 0
rthumb 1.36532 -70.5174 0
470
root 10.8839 17.394 29.6153 3.93059 4.36102 2.85921
lfemur -7.13884 2.44013 -28.4391
ltibia 22.0371 0 0
lfoot -17.5381 3.77793 0
ltoes 3.7119 0 0
rfemur -33.3961 1.32972 15.8996
rtibia 48.249 0 0
rfoot -19.81 -10.3101 0
rtoes -15.6149 0 0
lowerback -5.03941 -4.07053 -3.96575
upperback 0.403414 -5.25313 1.89356
thorax 3.77426 -2.71318 3.72639
lowerneck -22.7105 -2.83196 -10.0784
upperneck 24.3851 -3.29184 10.0542
head 12.1504 -1.10142 4.97526
lclavicle -8.78228e-15 -3.51739e-15 0
lhumerus -11.5575 -19.8749 84.6442
lradius 27.6362 0 0
lwrist 5.53537 0 0
lhand -14.9042 -24.7909 0
lfingers 7.12502 0 0
lthumb 11.2572 4.88724 0
rclavicle -8.78228e-15 -3.51739e-15 0
rhumerus -45.5006 10.4299 -86.4637
rradius 38.8774 0 0
rwrist -20.0518 0 0
rhand -25.1384 -40.3648 0
rfingers 7.12502 0 0
rthumb 1.37781 -70.3469 0
471
root 10.8887 17.3915 29.7408 3.91501 4.43306 2.88236
lfemur -6.1946 2.36115 -28.4323
ltibia 21.2176 0 0
lfoot -17.5902 3.80122 0
ltoes 3.91077 0 0
rfemur -33.8443 1.60167 15.7459
rtibia 46.7065 0 0
rfoot -19.8381 -10.2697 0
rtoes -15.8673 0 0
lowerback -5.01961 -4.11662 -3.89993
upperback 0.417132 -5.31862 1.87213
thorax 3.77489 -2.74442 3.66267
lowerneck -22.6786 -2.82774 -10.0437
upperneck 24.4227 -3.29374 10.0188
head 12.1576 -1.10461 4.95622
lclavicle -6.17429e-15 -4.24075e-15 0
lhumerus -11.103 -20.0669 84.4498
lradius 28.0023 0 0
lwrist 5.89202 0 0
lhand -15.0609 -24.8907 0
lfingers 7.12502 0 0
lthumb 11.1061 4.79588 0
rclavicle -6.17429e-15 -4.24075e-15 0
rhumerus -45.7466 10.2899 -86.4138
rradius 38.9454 0 0
rwrist -20.2217 0 0
rhand -25.77 -38.9548 0
rfingers 7.12502 0 0
rthumb 0.767792 -68.9368 0
472
root 10.8936 17.389 29.8663 3.91353 4.48 2.90931
lfemur -5.23034 2.28613 -28.4337
ltibia 20.3417 0 0
lfoot -17.6318 3.82979 0
ltoes 4.16952 0 0
rfemur -34.2619 1.87092 15.5777
rtibia 45.1275 0 0
rfoot -19.8108 -10.1597 0
rtoes -16.2013 0 0
lowerback -4.99272 -4.1427 -3.81265
upperback 0.399331 -5.35868 1.8414
thorax 3.73388 -2.76117 3.58107
lowerneck -22.6076 -2.82429 -10.0205
upperneck 24.4783 -3.29669 9.97942
head 12.1643 -1.11092 4.93784
lclavicle -2.42502e-15 -4.52236e-15 0
lhumerus -10.7233 -20.2488 84.2952
lradius 28.3587 0 0
lwrist 6.18734 0 0
lhand -15.2082 -24.9857 0
lfingers 7.12502 0 0
lthumb 10.9639 4.70862 0
rclavicle -2.42502e-15 -4.52236e-15 0
rhumerus -46.0609 10.1304 -86.3713
rradius 39.001 0 0
rwrist -20.3679 0 0
rhand -26.8068 -36.7649 0
rfingers 7.12502 0 0
rthumb -0.233609 -66.7419 0
473
root 10.8985 17.3866 29.9918 3.92341 4.50581 2.94263
lfemur -4.23558 2.22447 -28.4415
ltibia 19.3897 0 0
lfoot -17.6452 3.86028 0
ltoes 4.43829 0 0
rfemur -34.666 2.15693 15.3905
rtibia 43.5483 0 0
rfoot -19.7627 -9.99391 0
rtoes -16.5003 0 0
lowerback -4.97967 -4.15956 -3.72645
upperback 0.374015 -5.3857 1.80761
thorax 3.69173 -2.77124 3.49702
lowerneck -22.533 -2.81731 -10.0004
upperneck 24.54 -3.29488 9.94182
head 12.1722 -1.11533 4.92177
lclavicle 1.46006e-15 -4.3291e-15 0
lhumerus -10.3876 -20.4201 84.1654
lradius 28.7094 0 0
lwrist 6.44085 0 0
lhand -15.3613 -25.0725 0
lfingers 7.12502 0 0
lthumb 10.8162 4.62951 0
rclavicle 1.46006e-15 -4.3291e-15 0
rhumerus -46.3917 9.96774 -86.3316
rradius 39.0448 0 0
rwrist -20.4855 0 0
rhand -28.0097 -34.2478 0
rfingers 7.12502 0 0
rthumb -1.39527 -64.2172 0
474
root 10.9033 17.3841 30.1173 3.94189 4.51445 2.98493
lfemur -3.19984 2.18556 -28.4536
ltibia 18.3418 0 0
lfoot -17.6127 3.88935 0
ltoes 4.6672 0 0
rfemur -35.0736 2.47914 15.1795
rtibia 42.0053 0 0
rfoot -19.7282 -9.78586 0
rtoes -16.6471 0 0
lowerback -5.00135 -4.17794 -3.66384
upperback 0.365184 -5.41205 1.777
thorax 3.68894 -2.78241 3.42596
lowerneck -22.49 -2.80249 -9.9753
upperneck 24.596 -3.2825 9.91161
head 12.1829 -1.11282 4.90967
lclavicle 4.47545e-15 -3.62783e-15 0
lhumerus -10.0648 -20.5801 84.0453
lradius 29.0585 0 0
lwrist 6.67208 0 0
lhand -15.5352 -25.1479 0
lfingers 7.12502 0 0
lthumb 10.6485 4.5626 0
rclavicle 4.47545e-15 -3.62783e-15 0
rhumerus -46.687 9.81807 -86.2902
rradius 39.0776 0 0
rwrist -20.5698 0 0
rhand -29.1391 -31.8563 0
rfingers 7.12502 0 0
rthumb -2.48605 -61.8176 0
475
root 10.9082 17.3816 30.2428 3.96623 4.50989 3.0388
lfemur -2.11262 2.17883 -28.4682
ltibia 17.1781 0 0
lfoot -17.5169 3.91365 0
ltoes 4.80639 0 0
rfemur -35.5016 2.85703 14.9403
rtibia 40.5348 0 0
rfoot -19.7419 -9.54925 0
rtoes -16.5249 0 0
lowerback -5.07869 -4.20861 -3.64736
upperback 0.396839 -5.45011 1.75584
thorax 3.76602 -2.80249 3.38331
lowerneck -22.514 -2.77552 -9.93688
upperneck 24.6344 -3.25372 9.89448
head 12.198 -1.09836 4.90318
lclavicle 5.61567e-15 -2.38542e-15 0
lhumerus -9.72438 -20.7282 83.9197
lradius 29.4099 0 0
lwrist 6.90053 0 0
lhand -15.7448 -25.2085 0
lfingers 7.12502 0 0
lthumb 10.4463 4.51195 0
rclavicle 5.61567e-15 -2.38542e-15 0
rhumerus -46.8949 9.69762 -86.2426
rradius 39.1002 0 0
rwrist -20.6159 0 0
rhand -29.9559 -30.0434 0
rfingers 7.12502 0 0
rthumb -3.27484 -59.998 0
476
root 10.9066 17.3743 30.3773 4.00244 4.479 3.09875
lfemur -0.958302 2.22057 -28.4782
ltibia 15.8502 0 0
lfoot -17.3379 3.92724 0
ltoes 4.87447 0 0
rfemur -35.9467 3.28537 14.6877
rtibia 39.0994 0 0
rfoot -19.7701 -9.24061 0
rtoes -15.9861 0 0
lowerback -5.23581 -4.25057 -3.67645
upperback 0.481603 -5.49809 1.74847
thorax 3.94997 -2.8312 3.37104
lowerneck -22.6324 -2.73043 -9.87963
upperneck 24.6582 -3.20036 9.89276
head 12.2231 -1.06689 4.90414
lclavicle 3.79899e-15 1.01233e-16 0
lhumerus -9.3362 -20.851 83.7769
lradius 29.7618 0 0
lwrist 7.1298 0 0
lhand -16.0092 -25.2408 0
lfingers 7.12502 0 0
lthumb 10.1913 4.49186 0
rclavicle 3.79899e-15 1.01233e-16 0
rhumerus -46.9978 9.61477 -86.1888
rradius 39.1242 0 0
rwrist -20.6105 0 0
rhand -30.5064 -28.725 0
rfingers 7.12502 0 0
rthumb -3.80648 -58.673 0
477
root 10.905 17.367 30.5117 4.05392 4.41599 3.1616
lfemur 0.257859 2.30652 -28.4836
ltibia 14.3643 0 0
lfoot -17.086 3.93162 0
ltoes 4.91505 0 0
rfemur -36.3945 3.74755 14.4285
rtibia 37.6625 0 0
rfoot -19.7785 -8.84033 0
rtoes -15.0948 0 0
lowerback -5.46081 -4.29501 -3.73297
upperback 0.602799 -5.54571 1.75076
thorax 4.2138 -2.86226 3.37719
lowerneck -22.8225 -2.66947 -9.80902
upperneck 24.6775 -3.12544 9.90238
head 12.258 -1.0214 4.91161
lclavicle -3.86535e-16 3.94625e-15 0
lhumerus -8.91899 -20.9463 83.6267
lradius 30.1105 0 0
lwrist 7.345 0 0
lhand -16.32 -25.2447 0
lfingers 7.12502 0 0
lthumb 9.89135 4.50195 0
rclavicle -3.86535e-16 3.94625e-15 0
rhumerus -47.0337 9.55823 -86.1324
rradius 39.1515 0 0
rwrist -20.5546 0 0
rhand -30.9914 -27.5222 0
rfingers 7.12502 0 0
rthumb -4.27483 -57.4618 0
478
root 10.9034 17.3598 30.6462 4.114 4.33581 3.23343
lfemur 1.515 2.41523 -28.4934
ltibia 12.7825 0 0
lfoot -16.7883 3.93458 0
ltoes 4.91578 0 0
rfemur -36.8457 4.24595 14.1457
rtibia 36.2617 0 0
rfoot -19.8006 -8.39784 0
rtoes -14.0514 0 0
lowerback -5.72055 -4.34098 -3.8131
upperback 0.74048 -5.59267 1.75624
thorax 4.517 -2.89442 3.39633
lowerneck -23.0442 -2.60066 -9.73336
upperneck 24.691 -3.03995 9.9194
head 12.2956 -0.968997 4.92303
lclavicle -5.44175e-15 8.29927e-15 0
lhumerus -8.51486 -21.0304 83.4862
lradius 30.4576 0 0
lwrist 7.53791 0 0
lhand -16.6517 -25.2372 0
lfingers 7.12502 0 0
lthumb 9.5714 4.52425 0
rclavicle -5.44175e-15 8.29927e-15 0
rhumerus -47.0341 9.5147 -86.0743
rradius 39.1677 0 0
rwrist -20.4654 0 0
rhand -31.4031 -26.445 0
rfingers 7.12502 0 0
rthumb -4.67232 -56.3756 0
479
root 10.9019 17.3525 30.7807 4.17603 4.25342 3.32031
lfemur 2.79228 2.52526 -28.5165
ltibia 11.1668 0 0
lfoot -16.472 3.9439 0
ltoes 4.8643 0 0
rfemur -37.3012 4.78293 13.822
rtibia 34.9348 0 0
rfoot -19.8698 -7.96255 0
rtoes -13.0564 0 0
lowerback -5.98189 -4.38753 -3.91299
upperback 0.8747 -5.63865 1.75843
thorax 4.81904 -2.92646 3.42301
lowerneck -23.2576 -2.53206 -9.66093
upperneck 24.6976 -2.95486 9.93989
head 12.3291 -0.916754 4.93589
lclavicle -9.86748e-15 1.23099e-14 0
lhumerus -8.16591 -21.1194 83.3724
lradius 30.8045 0 0
lwrist 7.70031 0 0
lhand -16.9783 -25.2351 0
lfingers 7.12502 0 0
lthumb 9.25628 4.54076 0
rclavicle -9.86748e-15 1.23099e-14 0
rhumerus -47.0306 9.47084 -86.0154
rradius 39.1588 0 0
rwrist -20.36 0 0
rhand -31.7334 -25.5036 0
rfingers 7.12502 0 0
rthumb -4.99134 -55.4258 0
480
root 10.9003 17.3452 30.9151 4.23334 4.18378 3.42831
lfemur 4.06883 2.61516 -28.5617
ltibia 9.57926 0 0
lfoot -16.1642 3.96738 0
ltoes 4.74824 0 0
rfemur -37.7617 5.36086 13.4405
rtibia 33.7194 0 0
rfoot -20.0197 -7.5839 0
rtoes -12.3103 0 0
lowerback -6.21169 -4.43371 -4.02882
upperback 0.985512 -5.68333 1.75087
thorax 5.07941 -2.95714 3.45179
lowerneck -23.4226 -2.47169 -9.60004
upperneck 24.6959 -2.88118 9.95991
head 12.3513 -0.871762 4.94764
lclavicle -1.21646e-14 1.51279e-14 0
lhumerus -7.91425 -21.2297 83.3025
lradius 31.1529 0 0
lwrist 7.82398 0 0
lhand -17.2741 -25.2552 0
lfingers 7.12502 0 0
lthumb 8.97082 4.53351 0
rclavicle -1.21646e-14 1.51279e-14 0
rhumerus -47.0547 9.41336 -85.9567
rradius 39.1107 0 0
rwrist -20.2552 0 0
rhand -31.9747 -24.7082 0
rfingers 7.12502 0 0
rthumb -5.22431 -54.6238 0
481
root 10.8987 17.3379 31.0496 4.27927 4.14186 3.56351
lfemur 5.32379 2.66349 -28.6379
ltibia 8.08195 0 0
lfoot -15.892 4.0128 0
ltoes 4.55523 0 0
rfemur -38.2278 5.98212 12.9841
rtibia 32.653 0 0
rfoot -20.2837 -7.31132 0
rtoes -12.0135 0 0
lowerback -6.37679 -4.47857 -4.15676
upperback 1.05297 -5.72639 1.72708
thorax 5.25761 -2.98522 3.47722
lowerneck -23.4994 -2.42759 -9.559
upperneck 24.6846 -2.82989 9.97552
head 12.3553 -0.841108 4.95575
lclavicle -1.08338e-14 1.59028e-14 0
lhumerus -7.80198 -21.3775 83.2935
lradius 31.5043 0 0
lwrist 7.90069 0 0
lhand -17.5135 -25.3146 0
lfingers 7.12502 0 0
lthumb 8.73987 4.4845 0
rclavicle -1.08338e-14 1.59028e-14 0
rhumerus -47.1378 9.32892 -85.8989
rradius 39.0091 0 0
rwrist -20.1682 0 0
rhand -32.119 -24.0689 0
rfingers 7.12502 0 0
rthumb -5.36363 -53.981 0
